<svg width="248" height="243" viewBox="0 0 248 243" fill="none" xmlns="http://www.w3.org/2000/svg">
<path d="M121.079 175.276H92.3601V127.297H121.079V175.276Z" fill="#9F7B82" stroke="#9F7B82"/>
<path d="M121.079 54.8245H92.3601V6.84589H121.079V54.8245Z" fill="#9F7B82" stroke="#9F7B82"/>
<path d="M210.066 62.4998V23.6231C216.028 17.9212 226.589 23.4071 231.125 26.8628V48.245L227.237 62.4998H210.066Z" fill="#9F7B82" stroke="#9F7B82"/>
<path d="M209.742 183.989V145.761C212.853 140.577 224.645 143.601 230.153 145.761V166.495L226.589 183.989H209.742Z" fill="#9F7B82" stroke="#9F7B82"/>
<path d="M123.086 178.367V125.137C135.681 121.738 154.157 128.219 161.821 131.884V178.367H123.086Z" fill="#7A1E2E" stroke="#9F7B82"/>
<path d="M186.812 181.365V148.378H208.054V179.866L186.812 181.365Z" fill="#7A1E2E" stroke="#212121"/>
<path d="M162.94 58.8581L126.883 56.8362L125.198 7.29907L147.664 6.59679L159.907 11.0059L166.984 19.4306L162.94 23.1375V58.8581Z" fill="#7A1E2E"/>
<path d="M208.999 27.4562H186.615V57.6611H208.999V27.4562Z" fill="#7A1E2E" stroke="black"/>
<path d="M40.9998 239.658H19.6938V25.3918C30.6282 12.5278 38.4538 20.0318 40.9998 25.3918V239.658Z" fill="#8E7A68" fill-opacity="0.8"/>
<path d="M186.812 239.658H165.506V25.3918C176.44 12.5278 184.266 20.0318 186.812 25.3918V239.658Z" fill="#8E7A68" fill-opacity="0.8"/>
<path d="M162.204 57.2381V85.2427H42.5844L42.1843 57.2381H162.204Z" fill="#8E7A68"/>
<path d="M42.1843 85.2427H42.5844M42.5844 85.2427H162.204V57.2381H42.1843L42.5844 85.2427Z" stroke="black"/>
<path d="M162.204 178.367V206.371H42.5844L42.1843 178.367H162.204Z" fill="#8E7A68"/>
<path d="M42.1843 206.371H42.5844M42.5844 206.371H162.204V178.367H42.1843L42.5844 206.371Z" stroke="black"/>
<path d="M73.3343 0.427139C68.2484 1.66112 64.1312 4.93593 61.6609 9.8244C61.6609 9.8244 60.1429 11.8848 59.8202 13.4789C59.4976 15.073 59.6749 33.5549 59.6749 33.5549L59.5296 53.6308H52.5546H45.5796L45.4343 38.7756C45.289 22.3066 45.3374 22.4965 41.753 18.842C39.1859 16.2316 35.8921 15.1875 30.0796 15.1875C23.6374 15.1875 20.8765 16.0418 17.9218 18.9844C13.7077 23.066 14.0468 14.2857 14.0468 118.985V211.723L15.2577 212.862C16.7109 214.286 18.3577 214.381 20.053 213.052L21.3124 212.103V119.507C21.3124 16.8961 21.0702 24.6322 24.4609 23.066C26.4952 22.1168 32.8405 22.0693 35.1171 22.9711C38.5562 24.3949 38.2655 15.235 38.2655 130.423C38.2655 230.47 38.2171 234.362 37.3937 235.074C36.6671 235.738 35.3593 235.881 29.8859 235.881C21.4093 235.881 21.3124 235.786 21.3124 229.948C21.3124 226.246 21.2155 225.772 20.1015 224.728C18.7452 223.351 17.9218 223.256 16.0327 224.253C14.1921 225.155 14.0468 225.677 14.0468 230.803C14.0468 235.928 14.8702 238.159 17.5827 240.485C20.2468 242.763 22.039 243.095 30.7577 242.905C39.7187 242.715 41.3655 242.241 43.8359 238.776L45.289 236.735L45.4343 222.544L45.5796 208.354H101.961H158.391V221.263C158.391 228.952 158.584 234.979 158.923 236.023C159.601 238.491 162.362 241.339 164.881 242.288C166.625 242.953 168.466 243.047 175.247 242.905L183.481 242.763L185.564 241.339C186.678 240.532 188.131 238.966 188.761 237.827L189.875 235.738V209.445V183.199H197.77H205.617L206.683 184.813C208.378 187.423 210.219 187.945 217.484 187.945C221.02 187.945 224.75 187.708 225.767 187.376C228.237 186.664 231.289 184.101 232.645 181.586C233.662 179.735 233.711 179.07 233.856 164.927C233.953 155.292 233.808 149.502 233.469 148.126C232.645 144.993 230.514 142.288 227.559 140.722C225.041 139.345 224.847 139.298 217.969 139.298C210.122 139.298 208.475 139.772 206.586 142.762L205.617 144.234L197.722 144.281H189.875L189.972 103.085L190.117 61.9365L197.867 61.8416L205.617 61.6992L206.586 63.218C208.572 66.2555 209.637 66.6826 216.516 66.825C224.508 67.0148 227.317 66.3504 230.272 63.4078C233.759 59.9906 233.953 58.9465 233.953 42.2877C233.905 26.673 233.759 25.7238 231.337 22.5439C230.611 21.6422 229.012 20.3133 227.753 19.6014C225.622 18.3674 225.041 18.2725 218.986 18.0826C210.945 17.8928 209.395 18.2725 206.973 21.1201L205.181 23.2559H197.286H189.391L188.567 21.9269C187.162 19.7437 184.886 17.5131 182.851 16.4689C181.301 15.6621 179.8 15.4248 175.683 15.2824L170.403 15.0926L166.673 11.3432C162.508 7.21405 161.103 6.73944 158.681 8.59042C156.598 10.2041 156.937 11.9602 160.037 15.0926L162.605 17.7504L161.055 19.8861C158.487 23.4931 158.391 24.1102 158.391 39.44V53.6308H142.648H126.906V30.6123V7.6412L132.622 7.49883C135.722 7.4039 140.13 7.49881 142.406 7.68866C146.62 7.97342 149.091 7.4039 149.236 6.02753C149.623 2.51541 148.461 0.996674 144.973 0.427139C142.019 -0.0474701 75.3687 -0.0474701 73.3343 0.427139ZM119.641 30.375V53.6308H106.32H92.9999V30.375V7.11914H106.32H119.641V30.375ZM179.461 22.9711C182.9 24.3949 182.609 15.235 182.609 130.328C182.609 226.246 182.561 234.22 181.786 235.027C181.108 235.786 180.187 235.881 174.375 235.881C169.434 235.881 167.545 235.691 166.819 235.216C165.898 234.552 165.898 232.938 165.898 130.375V26.151L166.916 24.8221C167.448 24.1102 168.466 23.2084 169.095 22.9236C170.694 22.1168 177.426 22.1642 179.461 22.9711ZM224.023 25.7238C226.542 26.8629 226.687 27.7172 226.687 42.7623V56.5734L225.041 58.1871L223.394 59.8008H218.017H212.641V42.4775V25.1543H217.726C220.584 25.1543 223.297 25.3916 224.023 25.7238ZM205.375 42.4775V54.5801H197.625H189.875V42.4775V30.375H197.625H205.375V42.4775ZM158.391 70.4795V80.209H101.961H45.5312V70.4795V60.75H101.961H158.391V70.4795ZM158.391 106.787V126.199L156.841 125.297C153.934 123.683 147.783 122.022 142.503 121.5C139.112 121.12 126.276 121.025 105.594 121.12L73.8671 121.263L70.9609 122.402C66.989 123.968 62.5812 128.287 60.9827 132.179C59.8687 134.979 59.8202 135.216 59.6749 154.818L59.5296 174.656H52.5062H45.5312V130.992V87.3281H101.961H158.391V106.787ZM119.641 151.638V174.656H106.32H92.9999V151.638V128.619H106.32H119.641V151.638ZM149.139 130.185C151.125 130.85 153.983 132.179 155.436 133.08L158.148 134.694L158.294 154.675L158.391 174.656H142.648H126.906V151.59V128.524L136.255 128.714C144.731 128.904 145.845 129.046 149.139 130.185ZM225.089 147.746L226.445 149.027L226.591 162.886C226.687 172.758 226.542 177.124 226.155 178.073C225.137 180.446 224.12 180.826 218.114 180.826H212.641V163.455V146.085L218.211 146.227C223.539 146.417 223.83 146.464 225.089 147.746ZM205.278 163.598L205.133 175.843H197.625H190.117L189.972 163.598L189.875 151.4H197.625H205.375L205.278 163.598ZM158.391 191.742V201.234H101.961H45.5312V191.742V182.25H101.961H158.391V191.742Z" fill="black"/>
<path d="M69.1229 9.4289C71.6944 6.47087 83.2095 6.60503 89.7485 7.1663V53.7104H69.1228C66.7315 37.184 68.1265 16.7525 69.1229 9.4289Z" fill="#7A1E2E"/>
<path d="M69.1229 130.445C71.6944 127.487 83.2095 127.622 89.7485 128.183V174.727H69.1228C66.7315 158.201 68.1265 137.769 69.1229 130.445Z" fill="#7A1E2E"/>
</svg>
